<svg width="100" height="100" viewBox="0 0 100 100" fill="none" xmlns="http://www.w3.org/2000/svg">
<g clip-path="url(#clip0_1181_14411)">
<path d="M45.4738 5.80237L56.9964 22.8824C58.049 24.434 59.8871 25.2205 61.7299 24.9373L82.1264 21.8537C86.4492 21.2076 89.3726 26.151 86.6709 29.5904L73.9548 45.7828C72.7817 47.2262 72.6216 49.2205 73.4594 50.8783L82.6552 69.2971C84.6372 73.1991 80.8092 77.4779 76.6785 76.0039L57.2977 69.0099C55.5535 68.381 53.565 68.8148 52.2412 70.1129L37.5337 84.5429C34.3922 87.6032 29.1868 85.2949 29.3069 80.9344L30.0659 60.4035C30.1371 58.5473 29.1042 56.8133 27.4934 55.9772L9.17664 46.4948C5.28798 44.4931 5.88705 38.7812 10.0863 37.5683L29.9141 31.8775C31.7074 31.3676 33.0509 29.887 33.3618 28.038L36.7245 7.71093C37.4054 3.46558 43.0299 2.23864 45.4738 5.80237Z" fill="#FFCC00"/>
<path d="M44.3909 46.4755C44.3909 46.4755 47.3324 47.5539 51.239 45.6521C54.5876 44.0221 55.5527 41.0419 55.5527 41.0419" stroke="black" stroke-linecap="round"/>
<circle cx="38.9453" cy="38.6267" r="1.5" fill="black"/>
<circle cx="53.8308" cy="35.3796" r="1.5" fill="black"/>
<path d="M59.8839 66.5279C58.4467 75.8472 55.7786 90.1018 55.305 91.6773C54.8989 93.0282 54.8127 93.6513 52.5924 94.146C50.3722 94.6407 40.9028 96.392 40.5417 95.5761C40.1807 94.7602 42.7995 94.2843 43.0832 92.5001C43.3101 91.0728 45.0158 75.4815 45.8403 67.8642" stroke="black" stroke-linecap="round" stroke-linejoin="round"/>
<path d="M72.4781 60.0253C80.6604 64.4048 89.0889 67.7973 90.8543 68.4795C92.1701 68.988 92.704 69.6437 94.0802 67.8325C95.4564 66.0213 99.6718 54.7139 99.0811 54.0453C98.4903 53.3766 96.8 55.9826 95.0603 55.4957C93.6685 55.1063 79.4178 48.3685 71.5017 44.5064" stroke="black" stroke-linecap="round" stroke-linejoin="round"/>
<path d="M71.0947 35.9284C72.9774 31.2902 77.9112 20.9504 79.2466 19.735C80.9159 18.2158 82.1303 17.8735 83.3448 17.5312C84.5592 17.1889 86.2285 15.6697 81.6169 16.0518C84.5165 15.5492 85.418 14.4998 85.5063 14.038C85.3922 13.6332 84.3519 13.1049 81.1034 14.2302C84.1583 12.9758 85.354 13.0321 85.619 11.6465C85.8309 10.538 81.9748 11.2753 80.0203 11.7825C81.7029 11.3956 85.2955 10.0333 85.3705 8.43919C85.4455 6.845 77.9686 8.69033 76.3558 9.0137C74.743 9.33706 73.9455 9.29983 73.8308 7.49675C73.7161 5.69367 72.5764 4.44195 71.9694 4.61293C70.7549 4.95499 71.2122 7.97251 69.9227 9.90906C68.6333 11.8456 62.0733 23.9197 61.1824 25.875" stroke="black" stroke-linecap="round" stroke-linejoin="round"/>
<path d="M26.8991 44.3536C23.6212 40.5704 15.6164 32.3742 13.9603 31.6545C11.8903 30.7548 10.6303 30.8224 9.3704 30.8901C8.11045 30.9577 6.0404 30.058 10.5289 28.9325C7.62208 29.3919 6.43029 28.6893 6.19774 28.2806C6.17519 27.8606 6.98955 27.0251 10.4274 27.0426C7.13116 26.8405 6.01751 27.2794 5.31987 26.0533C4.76176 25.0724 8.64956 24.5266 10.6632 24.3764C8.94576 24.5528 5.10576 24.422 4.52068 22.9372C3.93559 21.4524 11.6081 20.7878 13.239 20.5737C14.8699 20.3596 15.6128 20.0672 15.1398 18.3235C14.6669 16.5798 15.342 15.0274 15.9717 14.9935C17.2316 14.9256 17.772 17.9293 19.6171 19.3465C21.4622 20.7637 31.5656 30.0771 33.0395 31.6406" stroke="black" stroke-linecap="round" stroke-linejoin="round"/>
</g>
<defs>
<clipPath id="clip0_1181_14411">
<rect width="100" height="100" fill="white"/>
</clipPath>
</defs>
</svg>
